<svg width="62" height="81" viewBox="0 0 62 81" fill="none" xmlns="http://www.w3.org/2000/svg">
<path d="M30.7077 0C13.7754 0 0 13.7756 0 30.7077C0 37.4722 2.15729 43.888 6.23831 49.2616C9.90313 54.0875 14.9968 57.7712 20.6934 59.742L28.0919 78.2382C28.52 79.308 29.5558 80.0092 30.7077 80.0092C31.8597 80.0092 32.8955 79.308 33.3235 78.2382L40.7221 59.742C46.4187 57.7712 51.5124 54.0875 55.1772 49.2616C59.2582 43.888 61.4155 37.4722 61.4155 30.7077C61.4155 13.7756 47.6401 0 30.7077 0ZM30.7077 19.58C36.8437 19.58 41.8358 24.5718 41.8358 30.708C41.8358 36.844 36.844 41.8363 30.7077 41.8363C24.5718 41.8363 19.5797 36.8442 19.5797 30.708C19.5797 24.5718 24.5718 19.58 30.7077 19.58Z" fill="#1C2F3D"/>
</svg>
