<svg width="1142" height="83" viewBox="0 0 1142 83" fill="none" xmlns="http://www.w3.org/2000/svg">
<g clip-path="url(#clip0)">
<path d="M1072.67 8.99976C1073.4 8.99976 1074 8.40283 1074 7.66675V4.33362C1074 3.59692 1073.4 3 1072.67 3C1071.93 3 1071.33 3.59692 1071.33 4.33362V7.66675C1071.33 8.40283 1071.93 8.99976 1072.67 8.99976Z" fill="#0E7EB5"/>
<path d="M1071.98 73.0238C1072.21 73.4175 1072.63 73.661 1073.09 73.6665H1079.51C1079.71 73.6635 1079.91 73.6146 1080.09 73.5237C1080.27 73.6146 1080.47 73.6635 1080.67 73.6665H1123.33C1123.53 73.6641 1123.73 73.6152 1123.91 73.5237C1124.09 73.6152 1124.28 73.6641 1124.48 73.6665H1130.91C1131.77 73.4358 1132.44 72.7662 1132.67 71.9087V65.4841C1132.67 64.748 1132.07 64.1511 1131.33 64.1511C1130.6 64.1511 1130 64.748 1130 65.4841V70.9999H1124.67V41.6707L1130.02 46.2904C1130.06 47.0088 1130.66 47.5648 1131.38 47.5435C1132.1 47.5221 1132.67 46.9313 1132.67 46.2117V38.9998C1132.67 38.6122 1132.5 38.2441 1132.2 37.9908L1105.51 14.9391C1106.11 14.8079 1106.54 14.2799 1106.55 13.6665C1106.55 12.9304 1105.95 12.3335 1105.21 12.3335H1098.79C1098.05 12.3335 1097.45 12.9304 1097.45 13.6665C1097.46 14.2799 1097.89 14.8079 1098.49 14.9391L1071.8 37.9908C1071.5 38.2441 1071.33 38.6122 1071.33 38.9998V46.2123C1071.33 46.9325 1071.9 47.5251 1072.62 47.5459C1073.34 47.5673 1073.95 47.0094 1073.98 46.2904L1079.33 41.6707V70.9999H1074V65.4854C1074 64.7487 1073.4 64.1517 1072.67 64.1517C1071.93 64.1517 1071.33 64.7487 1071.33 65.4854V71.9093C1071.34 72.3683 1071.58 72.7906 1071.98 73.0238V73.0238ZM1105.21 70.9999H1095.33V55.0001H1108.67V61.6664H1107.33C1106.6 61.6664 1106 62.2639 1106 63C1106 63.7361 1106.6 64.3336 1107.33 64.3336H1108.67V70.9999H1105.21ZM1074 39.7883V39.6101L1102 15.4286L1130 39.6101V42.7534L1102.87 19.3245C1102.37 18.8917 1101.63 18.8917 1101.13 19.3245L1074 42.7534V39.7883ZM1102 22.0948L1122 39.3678V70.9999H1111.33V55.0001C1111.33 53.528 1110.14 52.3353 1108.67 52.3335H1095.33C1093.86 52.3353 1092.67 53.528 1092.67 55.0001V70.9999H1082V39.3678L1102 22.0948Z" fill="#0E7EB5"/>
<path d="M1072.67 60.3938C1073.4 60.3938 1074 59.7969 1074 59.0608V52.6368C1074 51.9001 1073.4 51.3032 1072.67 51.3032C1071.93 51.3032 1071.33 51.9001 1071.33 52.6368V59.0608C1071.33 59.7969 1071.93 60.3938 1072.67 60.3938V60.3938Z" fill="#0E7EB5"/>
<path d="M1072.67 21.8489C1073.4 21.8489 1074 21.252 1074 20.5159V15.0001H1079.52C1080.25 15.0001 1080.85 14.4032 1080.85 13.6665C1080.85 12.9304 1080.25 12.3335 1079.52 12.3335H1073.09C1072.63 12.339 1072.21 12.5831 1071.98 12.9774C1071.58 13.2106 1071.34 13.6329 1071.33 14.0913V20.5159C1071.33 21.252 1071.93 21.8489 1072.67 21.8489Z" fill="#0E7EB5"/>
<path d="M1072.67 34.6974C1073.4 34.6974 1074 34.1005 1074 33.3638V26.9392C1074 26.2031 1073.4 25.6062 1072.67 25.6062C1071.93 25.6062 1071.33 26.2031 1071.33 26.9392V33.3638C1071.33 34.1005 1071.93 34.6974 1072.67 34.6974Z" fill="#0E7EB5"/>
<path d="M1072.67 83C1073.4 83 1074 82.4031 1074 81.6664V78.3333C1074 77.5972 1073.4 77.0002 1072.67 77.0002C1071.93 77.0002 1071.33 77.5972 1071.33 78.3333V81.6664C1071.33 82.4031 1071.93 83 1072.67 83Z" fill="#0E7EB5"/>
<path d="M1063.33 15.0001H1066.67C1067.4 15.0001 1068 14.4032 1068 13.6665C1068 12.9304 1067.4 12.3335 1066.67 12.3335H1063.33C1062.6 12.3335 1062 12.9304 1062 13.6665C1062 14.4032 1062.6 15.0001 1063.33 15.0001V15.0001Z" fill="#0E7EB5"/>
<path d="M1111.64 15.0001H1118.06C1118.8 15.0001 1119.39 14.4032 1119.39 13.6665C1119.39 12.9304 1118.8 12.3335 1118.06 12.3335H1111.64C1110.9 12.3335 1110.3 12.9304 1110.3 13.6665C1110.3 14.4032 1110.9 15.0001 1111.64 15.0001V15.0001Z" fill="#0E7EB5"/>
<path d="M1124.49 15.0001H1130V20.5146C1130 21.2513 1130.6 21.8483 1131.33 21.8483C1132.07 21.8483 1132.67 21.2513 1132.67 20.5146V14.0907C1132.66 13.6317 1132.42 13.2094 1132.02 12.9762C1131.79 12.5825 1131.37 12.339 1130.91 12.3335H1124.49C1123.75 12.3335 1123.15 12.9304 1123.15 13.6665C1123.15 14.4032 1123.75 15.0001 1124.49 15.0001V15.0001Z" fill="#0E7EB5"/>
<path d="M1085.94 15.0001H1092.36C1093.1 15.0001 1093.7 14.4032 1093.7 13.6665C1093.7 12.9304 1093.1 12.3335 1092.36 12.3335H1085.94C1085.2 12.3335 1084.61 12.9304 1084.61 13.6665C1084.61 14.4032 1085.2 15.0001 1085.94 15.0001Z" fill="#0E7EB5"/>
<path d="M1140.67 12.3335H1137.33C1136.6 12.3335 1136 12.9304 1136 13.6665C1136 14.4032 1136.6 15.0001 1137.33 15.0001H1140.67C1141.4 15.0001 1142 14.4032 1142 13.6665C1142 12.9304 1141.4 12.3335 1140.67 12.3335V12.3335Z" fill="#0E7EB5"/>
<path d="M1131.33 77.0002C1130.6 77.0002 1130 77.5972 1130 78.3333V81.6664C1130 82.4031 1130.6 83 1131.33 83C1132.07 83 1132.67 82.4031 1132.67 81.6664V78.3333C1132.67 77.5972 1132.07 77.0002 1131.33 77.0002V77.0002Z" fill="#0E7EB5"/>
<path d="M1131.33 25.6062C1130.6 25.6062 1130 26.2031 1130 26.9392V33.3632C1130 34.0999 1130.6 34.6968 1131.33 34.6968C1132.07 34.6968 1132.67 34.0999 1132.67 33.3632V26.9392C1132.67 26.2031 1132.07 25.6062 1131.33 25.6062Z" fill="#0E7EB5"/>
<path d="M1131.33 51.3027C1130.6 51.3027 1130 51.8997 1130 52.6364V59.0609C1130 59.797 1130.6 60.3939 1131.33 60.3939C1132.07 60.3939 1132.67 59.797 1132.67 59.0609V52.6364C1132.67 51.8997 1132.07 51.3027 1131.33 51.3027V51.3027Z" fill="#0E7EB5"/>
<path d="M1131.33 8.99976C1132.07 8.99976 1132.67 8.40283 1132.67 7.66675V4.33362C1132.67 3.59692 1132.07 3 1131.33 3C1130.6 3 1130 3.59692 1130 4.33362V7.66675C1130 8.40283 1130.6 8.99976 1131.33 8.99976Z" fill="#0E7EB5"/>
<path d="M1140.67 71H1137.33C1136.6 71 1136 71.5969 1136 72.3336C1136 73.0697 1136.6 73.6666 1137.33 73.6666H1140.67C1141.4 73.6666 1142 73.0697 1142 72.3336C1142 71.5969 1141.4 71 1140.67 71V71Z" fill="#0E7EB5"/>
<path d="M1063.33 73.6666H1066.67C1067.4 73.6666 1068 73.0697 1068 72.3336C1068 71.5969 1067.4 71 1066.67 71H1063.33C1062.6 71 1062 71.5969 1062 72.3336C1062 73.0697 1062.6 73.6666 1063.33 73.6666V73.6666Z" fill="#0E7EB5"/>
<path d="M1102 48.3333C1106.42 48.3333 1110 44.7517 1110 40.3334C1110 35.915 1106.42 32.3335 1102 32.3335C1097.58 32.3335 1094 35.915 1094 40.3334C1094 44.7499 1097.58 48.3284 1102 48.3333V48.3333ZM1102 35.0001C1104.95 35.0001 1107.33 37.3878 1107.33 40.3334C1107.33 43.2789 1104.95 45.6666 1102 45.6666C1099.05 45.6666 1096.67 43.2789 1096.67 40.3334C1096.67 37.389 1099.06 35.0032 1102 35.0001V35.0001Z" fill="#0E7EB5"/>
</g>
<g clip-path="url(#clip1)">
<path d="M485.2 52.6665H472.928L483.55 46.533C484.426 46.032 485.066 45.2034 485.329 44.2293C485.593 43.2552 485.458 42.2167 484.954 41.3429L476.085 25.9854C475.58 25.1122 474.748 24.4755 473.773 24.2163C472.798 23.9519 471.758 24.0911 470.887 24.6019L460.263 30.7372L466.395 20.1181C466.904 19.2448 467.043 18.2046 466.784 17.2276C466.524 16.2506 465.885 15.4174 465.009 14.9129L449.654 6.04376C448.78 5.54163 447.743 5.40768 446.771 5.67093C445.798 5.93417 444.97 6.57257 444.469 7.44638L438.334 18.0742V5.80023C438.331 3.70239 436.631 2.00232 434.533 2H416.8C414.702 2.00232 413.002 3.70239 413 5.80023V74.1998C413.002 76.2976 414.702 77.9977 416.8 78H485.2C487.298 77.9977 488.998 76.2976 489 74.1998V56.4667C488.998 54.3689 487.298 52.6688 485.2 52.6665ZM416.8 52.6665C416.368 52.6711 415.939 52.75 415.533 52.9001V40H425.674L418.361 52.6665H416.8ZM467.862 52.6665H450.54L444.737 42.6278L457.899 35.0279L468.027 52.5714L467.862 52.6665ZM455.874 33.2716L440.878 41.9314L430.833 36.1313L438.43 22.9732L455.972 33.1011L455.874 33.2716ZM435.8 22.4612L428.017 35.9435C428.012 35.9499 428.006 35.9528 428.002 35.9597L427.995 35.98L427.137 37.4667H415.533V22.2669H435.8V22.4612ZM429.566 38.3254L438.345 43.3943L422.287 52.6665H421.286L429.566 38.3254ZM441.495 44.5007L441.511 44.4914L442.544 43.8947L447.614 52.6665H427.354L441.495 44.5007ZM435.8 55.1998H451V75.4667H435.8V55.1998ZM453.533 55.1998H468.733V75.4667H453.533V55.1998ZM472.159 26.7931C472.447 26.6227 472.794 26.5757 473.118 26.6627C473.445 26.7508 473.724 26.9642 473.894 27.257L482.758 42.6064C482.927 42.898 482.972 43.2448 482.883 43.57C482.795 43.8947 482.58 44.1713 482.287 44.3366L470.221 51.3033L460.093 33.7604L472.159 26.7931ZM446.665 8.70926C446.831 8.41818 447.106 8.2048 447.431 8.11667C447.754 8.02853 448.1 8.0726 448.391 8.23959L463.738 17.1035C464.033 17.2734 464.249 17.5535 464.337 17.8822C464.424 18.2087 464.376 18.556 464.203 18.8465L457.24 30.907L439.697 20.7791L446.665 8.70926ZM416.8 4.53329H434.533C435.233 4.53445 435.799 5.10095 435.8 5.80023V19.7331H415.533V5.80023C415.534 5.10095 416.101 4.53445 416.8 4.53329ZM415.533 74.1998V56.4667C415.534 55.7674 416.101 55.2009 416.8 55.1998H433.267V75.4667H416.8C416.101 75.4655 415.534 74.899 415.533 74.1998ZM486.467 74.1998C486.466 74.899 485.899 75.4655 485.2 75.4667H471.267V55.1998H485.2C485.899 55.2009 486.466 55.7674 486.467 56.4667V74.1998Z" fill="#0E7EB5"/>
<path d="M425.666 60.2671C422.868 60.2671 420.6 62.5354 420.6 65.3337C420.6 68.132 422.868 70.4003 425.666 70.4003C428.464 70.4003 430.733 68.132 430.733 65.3337C430.73 62.5366 428.463 60.27 425.666 60.2671ZM425.666 67.867C424.267 67.867 423.133 66.7328 423.133 65.3337C423.133 63.9345 424.267 62.8004 425.666 62.8004C427.065 62.8004 428.199 63.9345 428.199 65.3337C428.198 66.7322 427.065 67.8652 425.666 67.867Z" fill="#0E7EB5"/>
</g>
<g clip-path="url(#clip2)">
<path d="M832.667 5.99976C833.403 5.99976 834 5.40283 834 4.66675V1.33362C834 0.596924 833.403 0 832.667 0C831.93 0 831.333 0.596924 831.333 1.33362V4.66675C831.333 5.40283 831.93 5.99976 832.667 5.99976Z" fill="#0E7EB5"/>
<path d="M831.978 70.0238C832.212 70.4175 832.634 70.661 833.091 70.6665H839.514C839.715 70.6635 839.912 70.6146 840.091 70.5237C840.269 70.6146 840.466 70.6635 840.666 70.6665H883.334C883.534 70.6641 883.73 70.6152 883.909 70.5237C884.087 70.6152 884.284 70.6641 884.484 70.6665H890.909C891.766 70.4358 892.436 69.7662 892.667 68.9087V62.4841C892.667 61.748 892.07 61.1511 891.334 61.1511C890.597 61.1511 890 61.748 890 62.4841V67.9999H884.667V38.6707L890.016 43.2904C890.055 44.0088 890.66 44.5648 891.38 44.5435C892.099 44.5221 892.67 43.9313 892.667 43.2117V35.9998C892.667 35.6122 892.498 35.2441 892.204 34.9908L865.513 11.9391C866.112 11.8079 866.54 11.2799 866.546 10.6665C866.546 9.93042 865.948 9.3335 865.212 9.3335H858.788C858.052 9.3335 857.454 9.93042 857.454 10.6665C857.46 11.2799 857.888 11.8079 858.487 11.9391L831.796 34.9908C831.502 35.2441 831.333 35.6122 831.334 35.9998V43.2123C831.329 43.9325 831.901 44.5251 832.621 44.5459C833.341 44.5673 833.946 44.0094 833.984 43.2904L839.333 38.6707V67.9999H834V62.4854C834 61.7487 833.403 61.1517 832.667 61.1517C831.93 61.1517 831.334 61.7487 831.334 62.4854V68.9093C831.339 69.3683 831.583 69.7906 831.978 70.0238ZM865.212 67.9999H855.333V52.0001H868.667V58.6664H867.333C866.597 58.6664 866 59.2639 866 60C866 60.7361 866.597 61.3336 867.333 61.3336H868.667V67.9999H865.212ZM834 36.7883V36.6101L862 12.4286L890 36.6101V39.7534L862.871 16.3245C862.371 15.8917 861.629 15.8917 861.129 16.3245L834 39.7534V36.7883ZM862 19.0948L882 36.3678V67.9999H871.334V52.0001C871.332 50.528 870.138 49.3353 868.667 49.3335H855.333C853.862 49.3353 852.668 50.528 852.667 52.0001V67.9999H842V36.3678L862 19.0948Z" fill="#0E7EB5"/>
<path d="M832.667 57.3938C833.403 57.3938 834 56.7969 834 56.0608V49.6368C834 48.9001 833.403 48.3032 832.667 48.3032C831.93 48.3032 831.333 48.9001 831.333 49.6368V56.0608C831.333 56.7969 831.93 57.3938 832.667 57.3938Z" fill="#0E7EB5"/>
<path d="M832.667 18.8489C833.403 18.8489 834 18.252 834 17.5159V12.0001H839.516C840.252 12.0001 840.849 11.4032 840.849 10.6665C840.849 9.93042 840.252 9.3335 839.516 9.3335H833.091C832.633 9.33899 832.211 9.58313 831.977 9.97742C831.583 10.2106 831.339 10.6329 831.333 11.0913V17.5159C831.333 18.252 831.93 18.8489 832.667 18.8489Z" fill="#0E7EB5"/>
<path d="M832.667 31.6974C833.403 31.6974 834 31.1005 834 30.3638V23.9392C834 23.2031 833.403 22.6062 832.667 22.6062C831.93 22.6062 831.333 23.2031 831.333 23.9392V30.3638C831.333 31.1005 831.93 31.6974 832.667 31.6974Z" fill="#0E7EB5"/>
<path d="M832.667 80C833.403 80 834 79.4031 834 78.6664V75.3333C834 74.5972 833.403 74.0002 832.667 74.0002C831.93 74.0002 831.333 74.5972 831.333 75.3333V78.6664C831.333 79.4031 831.93 80 832.667 80Z" fill="#0E7EB5"/>
<path d="M823.334 12.0001H826.667C827.403 12.0001 828 11.4032 828 10.6665C828 9.93042 827.403 9.3335 826.667 9.3335H823.334C822.597 9.3335 822 9.93042 822 10.6665C822 11.4032 822.597 12.0001 823.334 12.0001Z" fill="#0E7EB5"/>
<path d="M871.637 12.0001H878.061C878.797 12.0001 879.394 11.4032 879.394 10.6665C879.394 9.93042 878.797 9.3335 878.061 9.3335H871.637C870.9 9.3335 870.303 9.93042 870.303 10.6665C870.303 11.4032 870.9 12.0001 871.637 12.0001Z" fill="#0E7EB5"/>
<path d="M884.486 12.0001H890V17.5146C890 18.2513 890.597 18.8483 891.333 18.8483C892.07 18.8483 892.667 18.2513 892.667 17.5146V11.0907C892.661 10.6317 892.417 10.2094 892.022 9.9762C891.788 9.58252 891.366 9.33899 890.909 9.3335H884.486C883.749 9.3335 883.152 9.93042 883.152 10.6665C883.152 11.4032 883.749 12.0001 884.486 12.0001Z" fill="#0E7EB5"/>
<path d="M845.941 12.0001H852.363C853.1 12.0001 853.697 11.4032 853.697 10.6665C853.697 9.93042 853.1 9.3335 852.363 9.3335H845.941C845.204 9.3335 844.607 9.93042 844.607 10.6665C844.607 11.4032 845.204 12.0001 845.941 12.0001Z" fill="#0E7EB5"/>
<path d="M900.666 9.3335H897.333C896.597 9.3335 896 9.93042 896 10.6665C896 11.4032 896.597 12.0001 897.333 12.0001H900.666C901.403 12.0001 902 11.4032 902 10.6665C902 9.93042 901.403 9.3335 900.666 9.3335Z" fill="#0E7EB5"/>
<path d="M891.334 74.0002C890.597 74.0002 890 74.5972 890 75.3333V78.6664C890 79.4031 890.597 80 891.334 80C892.07 80 892.667 79.4031 892.667 78.6664V75.3333C892.667 74.5972 892.07 74.0002 891.334 74.0002Z" fill="#0E7EB5"/>
<path d="M891.334 22.6062C890.597 22.6062 890 23.2031 890 23.9392V30.3632C890 31.0999 890.597 31.6968 891.334 31.6968C892.07 31.6968 892.667 31.0999 892.667 30.3632V23.9392C892.667 23.2031 892.07 22.6062 891.334 22.6062Z" fill="#0E7EB5"/>
<path d="M891.334 48.3027C890.597 48.3027 890 48.8997 890 49.6364V56.0609C890 56.797 890.597 57.3939 891.334 57.3939C892.07 57.3939 892.667 56.797 892.667 56.0609V49.6364C892.667 48.8997 892.07 48.3027 891.334 48.3027Z" fill="#0E7EB5"/>
<path d="M891.334 5.99976C892.07 5.99976 892.667 5.40283 892.667 4.66675V1.33362C892.667 0.596924 892.07 0 891.334 0C890.597 0 890 0.596924 890 1.33362V4.66675C890 5.40283 890.597 5.99976 891.334 5.99976Z" fill="#0E7EB5"/>
<path d="M900.666 68H897.333C896.597 68 896 68.5969 896 69.3336C896 70.0697 896.597 70.6666 897.333 70.6666H900.666C901.403 70.6666 902 70.0697 902 69.3336C902 68.5969 901.403 68 900.666 68Z" fill="#0E7EB5"/>
<path d="M823.334 70.6666H826.667C827.403 70.6666 828 70.0697 828 69.3336C828 68.5969 827.403 68 826.667 68H823.334C822.597 68 822 68.5969 822 69.3336C822 70.0697 822.597 70.6666 823.334 70.6666Z" fill="#0E7EB5"/>
<path d="M862 45.3333C866.418 45.3333 870 41.7517 870 37.3334C870 32.915 866.418 29.3335 862 29.3335C857.582 29.3335 854 32.915 854 37.3334C854.005 41.7499 857.583 45.3284 862 45.3333ZM862 32.0001C864.945 32.0001 867.333 34.3878 867.333 37.3334C867.333 40.2789 864.945 42.6666 862 42.6666C859.054 42.6666 856.667 40.2789 856.667 37.3334C856.67 34.389 859.056 32.0032 862 32.0001Z" fill="#0E7EB5"/>
</g>
<g clip-path="url(#clip3)">
<path d="M75.9998 46.668H71.9997V33.3353C71.9955 29.655 69.0134 26.6729 65.3331 26.6687H44.0008C40.3205 26.6729 37.3384 29.655 37.3341 33.3353V46.668H33.334C31.1264 46.6705 29.3369 48.4599 29.3345 50.6681V64.0008C29.3449 67.5096 32.0767 70.4075 35.5788 70.6248L33.6617 77.3335H21.2C20.5622 74.2324 17.8346 72.0047 14.6682 72.0004H12.0017V10.6157C12.0035 6.44532 15.2273 2.98535 19.3873 2.68995C23.5473 2.39455 27.2282 5.36381 27.8197 9.4921L27.8428 9.65384C26.1223 10.3624 25.1232 12.169 25.4381 14.0024L25.8019 16.1551L22.2369 22.2773C21.7578 23.1007 21.7542 24.1169 22.2266 24.9439C22.6996 25.7709 23.5778 26.2829 24.5306 26.2872C24.6832 26.2872 24.8357 26.2744 24.9859 26.2488L37.7772 24.087C38.7971 23.9142 39.6253 23.1672 39.9024 22.1705C40.1789 21.1738 39.8542 20.107 39.0687 19.4338L33.6898 14.8227L33.3261 12.6701C33.0679 11.1693 31.9778 9.94619 30.5167 9.51712L30.4593 9.11491C29.6714 3.59996 24.7546 -0.367811 19.1981 0.0270741C13.6416 0.421959 9.33515 5.04522 9.33515 10.6157V72.0004H6.66861V70.6675C6.66861 69.9308 6.0717 69.3339 5.33503 69.3339C4.59897 69.3339 4.00207 69.9308 4.00207 70.6675V72.5656C1.576 73.6258 0.00683578 76.0195 0.00195312 78.6671C0.00195312 79.4032 0.598857 80.0001 1.33553 80.0001H78.6664C79.4025 80.0001 79.9994 79.4032 79.9994 78.6671C79.9994 77.9304 79.4025 77.3335 78.6664 77.3335H75.6721L73.7551 70.6248C77.2571 70.4075 79.989 67.5096 79.9994 64.0008V50.6681C79.9969 48.4599 78.2074 46.6705 75.9998 46.668ZM37.3329 21.4577L24.5416 23.6201L28.0351 17.6205L32.0627 16.94L37.3427 21.4552L37.3329 21.4577ZM30.9195 14.4285L28.2902 14.8728L28.0674 13.5581C27.946 12.8324 28.4343 12.1452 29.1599 12.0213C29.2338 12.0091 29.3083 12.003 29.3833 12.003C30.0333 12.0042 30.5881 12.473 30.698 13.1138L30.9195 14.4285ZM44.0008 29.3352H65.3331C67.5413 29.3376 69.3307 31.1271 69.3332 33.3353V46.914C67.7396 47.4749 66.6715 48.9781 66.6667 50.6681V53.3688C65.5192 52.4869 64.1136 52.006 62.6665 52.0011H57.8858L60.943 48.9439C61.4477 48.4209 61.441 47.589 60.9265 47.0751C60.412 46.5606 59.5807 46.5533 59.0577 47.0586L56.0005 50.1158V44.0015C56.0005 43.2648 55.403 42.6679 54.6669 42.6679C53.9309 42.6679 53.3333 43.2648 53.3333 44.0015V50.1158L50.2762 47.0586C49.7531 46.5533 48.9219 46.5606 48.4074 47.0751C47.8929 47.589 47.8861 48.4209 48.3909 48.9439L51.448 52.0011H46.6673C45.2202 52.006 43.8146 52.4869 42.6672 53.3688V50.6681C42.6623 48.9781 41.5942 47.4749 40.0007 46.914V33.3353C40.0031 31.1271 41.7926 29.3376 44.0008 29.3352ZM62.6665 54.6676C64.8747 54.6701 66.6642 56.4596 66.6667 58.6677V60.0007H42.6672V58.6677C42.6696 56.4596 44.4591 54.6701 46.6673 54.6676H62.6665ZM64.5598 70.6675L68.3695 77.3335H40.965L44.7741 70.6675H64.5598ZM66.6667 68.0003H42.6672V62.6672H66.6667V68.0003ZM32.001 64.0008V50.6681C32.0016 49.9321 32.5985 49.3358 33.334 49.3346H38.6677C39.4031 49.3358 40 49.9321 40.0007 50.6681V68.0003H36.0011C33.793 67.9979 32.0035 66.209 32.001 64.0008ZM2.89737 77.3335C3.46375 75.7369 4.97372 74.6688 6.66861 74.667H14.6682C16.3625 74.6688 17.8731 75.7369 18.4395 77.3335H2.89737ZM36.4351 77.3335L38.3399 70.6675H41.7035L37.8944 77.3335H36.4351ZM71.4394 77.3335L67.6304 70.6675H70.9939L72.8988 77.3335H71.4394ZM77.3328 64.0008C77.3304 66.209 75.5409 67.9979 73.3327 68.0003H69.3332V50.6681C69.3338 49.9321 69.9307 49.3358 70.6662 49.3346H75.9998C76.7353 49.3358 77.3316 49.9321 77.3328 50.6681V64.0008Z" fill="#0E7EB5"/>
</g>
<defs>
<clipPath id="clip0">
<rect width="80" height="80" fill="white" transform="translate(1062 3)"/>
</clipPath>
<clipPath id="clip1">
<rect width="76" height="76" fill="white" transform="translate(413 2)"/>
</clipPath>
<clipPath id="clip2">
<rect width="80" height="80" fill="white" transform="translate(822)"/>
</clipPath>
<clipPath id="clip3">
<rect width="80" height="80" fill="white"/>
</clipPath>
</defs>
</svg>
