<?xml version="1.0" encoding="utf-8"?><svg xmlns="http://www.w3.org/2000/svg" xmlns:xlink="http://www.w3.org/1999/xlink"><symbol viewBox="0 0 20 12" id="arr" xmlns="http://www.w3.org/2000/svg"><path d="M19.495 6.495a.7.7 0 0 0 0-.99L15.04 1.05a.7.7 0 1 0-.99.99L18.01 6l-3.96 3.96a.7.7 0 1 0 .99.99l4.455-4.455zM0 6.7h19V5.3H0v1.4z"/></symbol><symbol viewBox="0 0 9 6" id="arr-acc" xmlns="http://www.w3.org/2000/svg"><path d="M4.5 5.5L.17.25h8.66L4.5 5.5z"/></symbol><symbol viewBox="0 0 12 6" id="arr-btn" xmlns="http://www.w3.org/2000/svg"><path d="M6 6L.804 0h10.392L6 6z"/></symbol><symbol viewBox="0 0 15 27" id="arr-slider" xmlns="http://www.w3.org/2000/svg"><path d="M13.109 26.392l.001.001a.665.665 0 0 0 .94-.016.665.665 0 0 0 0-.924h-.001L2.1 13.502 14.049 1.556a.664.664 0 0 0 .016-.94.664.664 0 0 0-.94-.016.619.619 0 0 0-.016.016L.692 13.034c-.26.26-.26.68 0 .94l12.417 12.418z"/></symbol><symbol viewBox="0 0 39 41" id="arrow-link" xmlns="http://www.w3.org/2000/svg"><path d="M18.355.261a.891.891 0 0 0-1.26 1.26l18.973 18.975-18.975 18.972a.891.891 0 1 0 1.26 1.26l19.604-19.603a.891.891 0 0 0 0-1.26L18.355.26z"/><path d="M21.92 19.865L2.315.26a.891.891 0 0 0-1.26 1.26l18.973 18.975L1.053 39.468a.891.891 0 1 0 1.26 1.26l19.604-19.603a.891.891 0 0 0 .001-1.26z"/></symbol><symbol viewBox="0 0 22 22" id="file" xmlns="http://www.w3.org/2000/svg"><path d="M12.55 8.938a2.99 2.99 0 0 0 2.987 2.987 2.99 2.99 0 0 0 2.987-2.988V3.163a.513.513 0 0 0-1.025 0v5.775c0 1.082-.88 1.962-1.962 1.962a1.964 1.964 0 0 1-1.963-1.963V4.4a.725.725 0 0 1 1.45 0v4.537a.513.513 0 0 0 1.025 0V4.4c0-.965-.784-1.75-1.75-1.75-.965 0-1.75.785-1.75 1.75v4.537z"/><path d="M3.163 20.175h15.675c1.193 0 2.163-.97 2.163-2.162V8.938a.513.513 0 0 0-1.025 0v9.075a1.14 1.14 0 0 1-1.138 1.137H3.163c-.627 0-1.137-.51-1.137-1.137V7.288c0-.627.51-1.138 1.137-1.138h4.2c.076 0 .16.035.214.089L8.75 7.41c.248.248.589.39.94.39h.9a.513.513 0 0 0 0-1.025h-.9a.319.319 0 0 1-.215-.089L8.303 5.515a1.337 1.337 0 0 0-.94-.39h-4.2c-1.193 0-2.162.97-2.162 2.163v10.725c0 1.192.97 2.162 2.162 2.162z"/></symbol><symbol viewBox="0 0 54 48" id="heart" xmlns="http://www.w3.org/2000/svg"><path d="M27 47.75c-.301 0-.592-.121-.8-.335L4.13 24.98c-5.499-5.587-5.499-14.681 0-20.273C6.8 1.994 10.352.5 14.128.5c3.778 0 7.328 1.494 9.997 4.207L27 7.633l2.876-2.926C32.544 1.994 36.095.5 39.872.5c3.776 0 7.326 1.494 9.995 4.207 5.499 5.59 5.499 14.684 0 20.273L27.8 47.415c-.21.214-.5.335-.8.335zm-12.872-45c-3.168 0-6.15 1.258-8.393 3.535-4.641 4.72-4.641 12.4 0 17.116L27 45.02l21.265-21.618c4.642-4.718 4.642-12.398 0-17.116-2.243-2.28-5.225-3.537-8.393-3.537-3.17 0-6.149 1.258-8.392 3.535l-3.679 3.74c-.423.429-1.181.429-1.604 0l-3.679-3.74c-2.24-2.277-5.22-3.535-8.39-3.535z"/><path d="M34.5 3L27 9l-4-4.5c-1.333-.667-4.1-2-4.5-2-.4 0-4.166-.667-6-1L8 3 3 7l-2 9 2 6.5 24 24 22-22 4-6.5-.5-7.5-4.5-6-7.5-3-6 1.5z"/></symbol><symbol viewBox="0 0 182 23" id="logo" xmlns="http://www.w3.org/2000/svg"><path d="M22.476.561v.63c-.461.167-.953.533-1.477 1.1-.503.565-.975 1.445-1.415 2.64l-6.632 17.948a4.304 4.304 0 0 0-.534-.032h-1.101c-.188 0-.366.01-.534.032L2.768 3.202c-.294-.755-.618-1.268-.975-1.54-.356-.294-.691-.451-1.006-.472V.561c.63.021 1.363.042 2.2.063a108.552 108.552 0 0 0 5.28 0c.86-.02 1.552-.042 2.076-.063v.63c-1.027.041-1.697.22-2.012.533-.314.294-.251.996.189 2.106l5.72 14.554-.66.786 4.338-11.693c.566-1.572.86-2.808.88-3.71.021-.9-.199-1.55-.66-1.948-.46-.398-1.12-.608-1.98-.629V.561c.712.021 1.383.042 2.012.063.628.021 1.267.032 1.917.032.461 0 .89-.01 1.289-.032.419-.02.786-.042 1.1-.063zm16.941 0v.63c-.712.02-1.257.104-1.634.25-.357.126-.597.378-.723.755-.126.356-.189.922-.189 1.697v15.968c0 .65.042 1.132.126 1.446.105.314.293.524.566.629.293.105.723.157 1.288.157h1.54c.965 0 1.834-.294 2.61-.88.796-.587 1.456-1.404 1.98-2.452.545-1.069.922-2.295 1.131-3.678h.723c-.063.713-.094 1.635-.094 2.766 0 .482.01 1.184.032 2.106.02.922.083 1.876.188 2.86a93.137 93.137 0 0 0-3.615-.062c-1.34-.021-2.535-.032-3.583-.032h-2.829c-1.173 0-2.42.011-3.74.032-1.32 0-2.547.02-3.678.063v-.629c.67-.042 1.174-.126 1.509-.251.335-.126.555-.378.66-.755.126-.377.188-.943.188-1.697V3.894c0-.776-.062-1.342-.188-1.698-.105-.377-.335-.629-.692-.754-.335-.147-.827-.231-1.477-.252V.561a136.918 136.918 0 0 0 4.966.095c.922 0 1.823-.01 2.704-.032a185.71 185.71 0 0 0 2.231-.063zM65.517.5l7.638 19.676c.293.755.618 1.279.974 1.572.377.273.713.42 1.006.44v.629a34.152 34.152 0 0 0-2.232-.063 112.707 112.707 0 0 0-5.28 0c-.86 0-1.54.02-2.043.063v-.629c1.068-.042 1.739-.22 2.011-.534.294-.335.23-1.037-.188-2.106L62.059 4.93l.566-.818-4.778 12.448c-.587 1.55-.88 2.724-.88 3.52.021.796.283 1.341.786 1.635.503.272 1.173.43 2.012.471v.629a32.795 32.795 0 0 0-1.98-.063 57.71 57.71 0 0 0-1.918-.032c-.461 0-.901.011-1.32.032-.398 0-.755.02-1.069.063v-.629c.44-.084.89-.367 1.352-.849.46-.482.911-1.299 1.351-2.451L63.348.499c.335.02.691.031 1.069.031.398 0 .764-.01 1.1-.031zm2.2 13.264v.629H58.35l.314-.629h9.053zM91.37.561c4.128 0 7.198.943 9.21 2.83 2.011 1.864 3.017 4.547 3.017 8.046 0 2.284-.492 4.286-1.477 6.004-.985 1.697-2.42 3.017-4.306 3.96-1.865.943-4.108 1.415-6.727 1.415-.503 0-1.226-.01-2.169-.032a54.158 54.158 0 0 0-2.42-.063c-.922 0-1.834.011-2.735.032-.88 0-1.582.02-2.106.063v-.629c.67-.042 1.174-.126 1.509-.251.335-.126.555-.378.66-.755.126-.377.189-.943.189-1.697V3.894c0-.776-.063-1.342-.189-1.698-.105-.377-.335-.629-.691-.754-.336-.147-.828-.231-1.478-.252V.561c.524.021 1.226.053 2.106.095.901.02 1.792.02 2.672 0 .754-.021 1.603-.042 2.546-.063C89.944.572 90.74.56 91.37.56zm-.031.566c-.964 0-1.593.178-1.886.535-.294.356-.44 1.079-.44 2.168v15.717c0 1.09.146 1.812.44 2.169.314.356.953.534 1.917.534 1.76 0 3.143-.409 4.15-1.226 1.026-.838 1.76-2.053 2.2-3.646.44-1.593.66-3.531.66-5.815 0-3.52-.545-6.14-1.635-7.858-1.09-1.719-2.892-2.578-5.406-2.578zm37.386-.566v.63l-10.75 20.902h3.269c.713 0 1.425-.115 2.138-.346a5.65 5.65 0 0 0 2.011-1.131c.629-.524 1.163-1.216 1.603-2.075.44-.88.734-1.97.88-3.27h.723a33.097 33.097 0 0 0-.094 2.767c0 .482.011 1.163.032 2.043.02.88.083 1.792.188 2.735a109.272 109.272 0 0 0-3.929-.063 272.347 272.347 0 0 0-8.173 0c-1.487 0-2.881.02-4.18.063v-.629l10.781-20.903h-3.394c-1.048 0-2.012.2-2.892.598-.88.377-1.614 1.037-2.2 1.98-.587.922-.985 2.21-1.195 3.866h-.723c.042-.293.063-.65.063-1.069.021-.419.031-.859.031-1.32 0-.482-.021-1.163-.062-2.043a42.196 42.196 0 0 0-.158-2.735c1.048.042 2.222.074 3.521.095h8.047c1.592-.021 3.08-.053 4.463-.095zm25.573 0a63.825 63.825 0 0 0-.189 2.672 86.67 86.67 0 0 0-.031 1.98c0 .42.01.818.031 1.195.021.377.042.691.063.943h-.723c-.21-1.53-.534-2.735-.974-3.615-.441-.901-1.017-1.53-1.729-1.886-.692-.377-1.509-.566-2.452-.566h-1.289c-.628 0-1.1.053-1.414.158a.94.94 0 0 0-.597.628c-.105.294-.158.776-.158 1.446v16.345c0 .65.053 1.132.158 1.446a.94.94 0 0 0 .597.629c.314.105.786.157 1.414.157h1.54c.943 0 1.771-.2 2.484-.597.733-.42 1.351-1.121 1.854-2.106.524-.985.922-2.316 1.195-3.992h.723c-.063.67-.095 1.55-.095 2.64 0 .482.011 1.163.032 2.043.021.88.083 1.792.188 2.735a93.077 93.077 0 0 0-3.614-.063 232.165 232.165 0 0 0-3.584-.032h-2.829c-1.173 0-2.42.011-3.74.032-1.32 0-2.546.02-3.678.063v-.629c.671-.042 1.174-.126 1.509-.251.335-.126.555-.378.66-.755.126-.377.189-.943.189-1.697V3.894c0-.776-.063-1.342-.189-1.698-.105-.377-.335-.629-.692-.754-.335-.147-.827-.231-1.477-.252V.561c1.132.021 2.358.042 3.678.063 1.32.021 2.567.032 3.74.032h6.097a125.55 125.55 0 0 0 3.301-.095zm-4.904 10.75v.629h-5.501v-.629h5.501zm.912-4.149c-.084 1.195-.126 2.106-.126 2.735.021.629.031 1.205.031 1.729s.011 1.1.032 1.729c.021.628.073 1.54.157 2.734h-.723a7.234 7.234 0 0 0-.597-2.043 3.564 3.564 0 0 0-1.195-1.509c-.524-.398-1.205-.597-2.043-.597v-.629c.838 0 1.509-.23 2.012-.691a4.767 4.767 0 0 0 1.163-1.635c.272-.65.461-1.257.566-1.823h.723zm23.285-6.6v.628c-.713.021-1.258.105-1.635.252-.356.125-.597.377-.723.754-.125.356-.188.922-.188 1.697v15.968c0 .65.042 1.132.125 1.446.105.314.294.524.566.629.294.105.723.157 1.289.157h1.54a4.22 4.22 0 0 0 2.609-.88c.796-.587 1.456-1.404 1.98-2.452.545-1.069.922-2.295 1.132-3.678h.723c-.063.713-.094 1.635-.094 2.766 0 .482.01 1.184.031 2.106.021.922.084 1.876.189 2.86a93.168 93.168 0 0 0-3.615-.062 232.058 232.058 0 0 0-3.584-.032h-2.828c-1.174 0-2.421.011-3.741.032-1.32 0-2.546.02-3.678.063v-.629c.671-.042 1.174-.126 1.509-.251.335-.126.555-.378.66-.755.126-.377.189-.943.189-1.697V3.894c0-.776-.063-1.342-.189-1.698-.105-.377-.335-.629-.691-.754-.336-.147-.828-.231-1.478-.252V.561a137.077 137.077 0 0 0 4.967.095c.922 0 1.823-.01 2.703-.032.901-.02 1.645-.042 2.232-.063z"/></symbol><symbol viewBox="0 0 16 19" id="paper" xmlns="http://www.w3.org/2000/svg"><path clip-rule="evenodd" d="M10.51 1.532h-6.1A3.502 3.502 0 0 0 .897 4.951v9.82a3.51 3.51 0 0 0 3.43 3.585h7.408a3.563 3.563 0 0 0 3.418-3.585V6.369L10.51 1.532z"/><path d="M10.269 1.52v2.667a2.36 2.36 0 0 0 2.354 2.36h2.525m-5.051 6.532h-4.95m3.075-3.44H5.146"/></symbol><symbol viewBox="0 0 31 24" id="quote" xmlns="http://www.w3.org/2000/svg"><path d="M7.788 23.24c-1.316 0-2.461-.257-3.434-.772a8.302 8.302 0 0 1-2.318-2.146c-.63-.916-1.087-1.974-1.374-3.176a18.79 18.79 0 0 1-.343-3.52c0-2.805.715-5.409 2.146-7.812C3.953 3.41 6.214 1.492 9.247.062l.773 1.545c-1.66.744-3.12 1.86-4.378 3.348-1.202 1.43-1.889 2.948-2.06 4.55-.23 1.03-.23 2.003 0 2.919 1.144-1.145 2.632-1.717 4.463-1.717 1.775 0 3.263.544 4.465 1.631 1.201 1.088 1.802 2.633 1.802 4.636 0 1.831-.63 3.348-1.888 4.55-1.202 1.145-2.747 1.717-4.636 1.717zm16.655 0c-1.317 0-2.461-.257-3.434-.772a8.303 8.303 0 0 1-2.318-2.146c-.63-.916-1.088-1.974-1.374-3.176a18.792 18.792 0 0 1-.343-3.52c0-2.805.715-5.409 2.146-7.812 1.488-2.404 3.749-4.322 6.782-5.752l.773 1.545c-1.66.744-3.12 1.86-4.379 3.348-1.201 1.43-1.888 2.948-2.06 4.55-.229 1.03-.229 2.003 0 2.919 1.145-1.145 2.633-1.717 4.464-1.717 1.774 0 3.262.544 4.464 1.631 1.202 1.088 1.803 2.633 1.803 4.636 0 1.831-.63 3.348-1.889 4.55-1.201 1.145-2.747 1.717-4.635 1.717z"/></symbol><symbol viewBox="0 0 42 41" id="telegram" xmlns="http://www.w3.org/2000/svg"><rect x=".545" width="41" height="41" rx="20.5"/><path fill-rule="evenodd" clip-rule="evenodd" d="M25.603 30.651c1.432.627 1.97-.686 1.97-.686l3.79-19.046c-.029-1.283-1.76-.507-1.76-.507L8.378 18.741s-1.015.358-.925.985c.09.627.895.925.895.925l5.344 1.791s1.612 5.284 1.94 6.299c.299.985.567 1.015.567 1.015.299.12.567-.09.567-.09l3.463-3.134 5.374 4.12zm.923-16.358s.746-.448.716 0c0 0 .12.06-.268.477-.358.358-8.806 7.94-9.94 8.956a.313.313 0 0 0-.15.268l-.328 2.806c-.06.299-.448.329-.538.06l-1.403-4.597a.44.44 0 0 1 .18-.508l11.731-7.462z"/></symbol><symbol viewBox="0 0 41 41" id="viber" xmlns="http://www.w3.org/2000/svg"><rect width="41" height="41" rx="20.5"/><path d="M30.539 10.408c-.678-.624-3.423-2.62-9.543-2.647 0 0-7.213-.438-10.73 2.789-1.957 1.958-2.646 4.818-2.717 8.372-.071 3.55-.164 10.205 6.25 12.01h.006l-.005 2.75s-.039 1.116.694 1.34c.886.273 1.41-.574 2.259-1.487a81.844 81.844 0 0 0 1.59-1.8c4.387.367 7.76-.475 8.144-.601.886-.29 5.9-.93 6.715-7.585.842-6.847-.41-11.184-2.663-13.141zm.744 12.66c-.69 5.556-4.753 5.906-5.502 6.146-.317.104-3.28.843-7.01.596 0 0-2.779 3.353-3.643 4.222-.136.137-.295.192-.399.164-.147-.038-.191-.213-.186-.47 0-.372.022-4.577.022-4.577-.005 0-.005 0 0 0-5.43-1.504-5.113-7.17-5.053-10.134.06-2.964.618-5.397 2.275-7.032 2.97-2.691 9.1-2.292 9.1-2.292 5.173.022 7.65 1.58 8.225 2.1 1.908 1.64 2.882 5.55 2.17 11.276z"/><path d="M23.518 19.12a.347.347 0 0 1-.345-.329c-.06-1.175-.612-1.75-1.739-1.81a.348.348 0 0 1 .038-.694c1.488.082 2.32.935 2.396 2.466a.34.34 0 0 1-.328.361c-.011.005-.017.005-.022.005z"/><path d="M25.288 19.71h-.006a.348.348 0 0 1-.339-.355c.028-1.181-.311-2.138-1.033-2.926-.717-.787-1.706-1.214-3.013-1.307a.344.344 0 0 1-.318-.372.344.344 0 0 1 .372-.317c1.477.11 2.642.623 3.473 1.531.837.914 1.241 2.056 1.214 3.407a.35.35 0 0 1-.35.34z"/><path d="M27.105 20.421a.343.343 0 0 1-.344-.344c-.017-2.117-.624-3.73-1.86-4.939-1.219-1.192-2.767-1.799-4.588-1.815a.348.348 0 0 1 0-.695c2.007.017 3.713.69 5.064 2.013 1.357 1.323 2.051 3.15 2.073 5.425a.342.342 0 0 1-.345.355c.006 0 .006 0 0 0zm-5.589 2.98s.487.044.75-.279l.508-.64c.246-.317.842-.52 1.422-.196.323.18.908.541 1.269.809.388.284 1.175.94 1.18.946.378.317.466.782.209 1.28v.01a5.333 5.333 0 0 1-1.061 1.308c-.006 0-.006.005-.011.005-.367.306-.727.481-1.078.52-.043.01-.093.01-.158.01a1.49 1.49 0 0 1-.46-.07l-.01-.017c-.547-.153-1.455-.536-2.964-1.373a17.6 17.6 0 0 1-2.494-1.646 12.781 12.781 0 0 1-1.16-1.033l-.038-.038-.038-.039-.038-.038a13.726 13.726 0 0 1-.996-1.121 17.3 17.3 0 0 1-1.646-2.494c-.836-1.515-1.22-2.422-1.372-2.964l-.017-.01a1.49 1.49 0 0 1-.07-.46c0-.066 0-.115.01-.159.044-.355.219-.71.52-1.077 0-.005.005-.005.005-.011a5.213 5.213 0 0 1 1.307-1.06h.011c.492-.258.957-.17 1.28.207 0 0 .661.793.946 1.181.268.367.629.946.81 1.269.322.58.12 1.176-.198 1.422l-.64.508c-.322.263-.278.75-.278.75s.946 3.598 4.5 4.5z"/></symbol><symbol viewBox="0 0 42 41" id="whatsapp" xmlns="http://www.w3.org/2000/svg"><rect x=".092" width="41" height="41" rx="20.5"/><path d="M29.773 11.285c-2.197-2.262-5.235-3.49-8.338-3.49-6.593 0-11.894 5.364-11.83 11.893 0 2.069.583 4.072 1.552 5.882l-1.68 6.141 6.27-1.616c1.745.97 3.684 1.422 5.623 1.422 6.529 0 11.83-5.365 11.83-11.894 0-3.167-1.229-6.14-3.427-8.338zm-8.338 18.228c-1.745 0-3.49-.452-4.977-1.357l-.388-.194-3.75.97.97-3.685-.258-.388c-2.844-4.59-1.487-10.665 3.167-13.51 4.654-2.844 10.666-1.486 13.51 3.168 2.844 4.654 1.486 10.665-3.168 13.51-1.486.97-3.296 1.486-5.106 1.486zm5.688-7.175l-.71-.323s-1.035-.452-1.681-.776c-.065 0-.13-.064-.194-.064a.931.931 0 0 0-.453.129s-.065.065-.97 1.099a.355.355 0 0 1-.323.194h-.064a.49.49 0 0 1-.259-.13l-.323-.129c-.711-.323-1.358-.71-1.875-1.228-.129-.13-.323-.258-.452-.388-.453-.452-.905-.97-1.228-1.551l-.065-.13c-.064-.064-.064-.129-.13-.258 0-.13 0-.259.066-.323 0 0 .258-.323.452-.517.13-.13.194-.323.323-.453.13-.194.194-.452.13-.646-.065-.323-.84-2.069-1.035-2.456-.13-.194-.258-.259-.452-.324h-.711c-.13 0-.259.065-.388.065l-.065.065c-.13.064-.258.194-.388.258-.129.13-.194.259-.323.388a3.296 3.296 0 0 0-.71 2.004c0 .517.128 1.034.322 1.487l.065.194a10.768 10.768 0 0 0 2.392 3.296l.258.259c.194.194.388.323.517.517 1.358 1.163 2.91 2.004 4.654 2.456.194.065.453.065.647.13h.646c.323 0 .711-.13.97-.26.194-.128.323-.128.452-.258l.13-.129c.129-.13.258-.194.387-.323.13-.13.259-.259.323-.388.13-.259.194-.582.26-.905v-.452s-.066-.065-.195-.13z"/></symbol></svg>