<svg width="74" height="65" viewBox="0 0 74 65" fill="none" xmlns="http://www.w3.org/2000/svg">
<path opacity="0.45" fill-rule="evenodd" clip-rule="evenodd" d="M36.742 3.82122C43.0891 4.44339 50.0367 1.48268 55.3683 5.00324C60.7623 8.56501 61.2368 16.0318 64.068 21.8651C67.5236 28.9849 75.47 35.1672 73.7627 42.9021C72.0639 50.5989 62.9003 53.6701 56.1603 57.6914C50.0679 61.3264 43.8214 65.2193 36.742 64.9904C29.7827 64.7654 23.0221 62.322 17.2097 58.4644C11.0939 54.4054 3.89037 50.9504 1.22689 44.083C-1.49309 37.0699 1.8373 27.303 4.11902 20.1334C6.40999 12.9347 8.55076 4.43725 15.2781 1.07343C21.8989 -2.2371 29.3836 3.09992 36.742 3.82122Z" fill="#0F5D83" fill-opacity="0.2"/>
</svg>
